<svg width="300" height="50" viewBox="0 0 300 50" fill="none" xmlns="http://www.w3.org/2000/svg">
<path d="M153.261 39.8382C151.764 38.1813 151.016 35.5359 151.016 31.9019V23.4105L146.435 23.9076V17.8601H151.405L150.991 10.864H157.987L157.217 17.8601H167.108C167.243 18.8358 167.307 19.8201 167.299 20.8051C167.305 21.8369 167.242 22.8679 167.108 23.891L157.552 23.2655V31.5498C157.552 33.284 157.915 34.5625 158.642 35.3854C159.368 36.2083 160.453 36.6225 161.897 36.628C163.851 36.5741 165.785 36.2322 167.638 35.6132C167.991 37.1408 168.248 38.6888 168.409 40.2483C167.067 40.899 165.661 41.4071 164.213 41.7643C162.809 42.126 161.367 42.3124 159.917 42.3193C156.977 42.3193 154.758 41.4923 153.261 39.8382Z" fill="white"/>
<path d="M262.021 35.7582L266.846 36.1724V23.3318L262.265 24.2017C262.166 23.1371 262.12 22.0933 262.12 21.0661C262.12 20.0388 262.166 18.9743 262.265 17.976C264.002 17.8131 266.108 17.733 268.582 17.7358C269.615 17.7358 271.16 17.7676 273.217 17.8311V36.2138L277.57 35.7582L277.521 41.5986H262.071L262.021 35.7582ZM266.076 13.6144C265.693 13.2796 265.39 12.8632 265.189 12.3958C264.989 11.9284 264.895 11.422 264.916 10.9137C264.892 10.3978 264.984 9.88304 265.185 9.40715C265.385 8.93125 265.69 8.50627 266.076 8.16333C266.846 7.48955 267.908 7.15265 269.261 7.15265C270.388 7.0881 271.498 7.44877 272.372 8.16333C272.75 8.51099 273.048 8.93752 273.243 9.41278C273.439 9.88804 273.527 10.4004 273.503 10.9137C273.524 11.4193 273.434 11.9233 273.238 12.3901C273.043 12.8569 272.747 13.2749 272.372 13.6144C271.499 14.3304 270.389 14.6926 269.261 14.6292C267.897 14.6292 266.835 14.2909 266.076 13.6144Z" fill="white"/>
<path d="M249.768 32.7676C248.393 33.7614 246.904 34.5874 245.332 35.228V41.5986H238.962V14.0037L236.116 14.3393C236.052 12.3455 236.021 10.9648 236.021 10.1971V8.58169C237.564 8.45466 239.381 8.38977 241.472 8.38701C243.239 8.38701 244.526 8.42014 245.332 8.48642V29.1971C247.352 27.7596 249.114 25.9908 250.543 23.9656C251.847 22.122 252.795 20.0514 253.339 17.8601C254.756 17.7966 255.86 17.7648 256.653 17.7648C257.481 17.7648 258.612 17.7979 260.028 17.8601C259.561 19.8565 258.822 21.7797 257.833 23.5762C256.78 25.5354 255.492 27.3589 253.998 29.0065C256.699 33.0675 259.179 37.2709 261.429 41.5986H253.96C252.356 38.0612 250.959 35.1175 249.768 32.7676Z" fill="white"/>
<path d="M219.713 35.7582L224.878 36.1724V13.9665C222.722 14.3199 221.048 14.6251 219.858 14.8819C219.796 13.4694 219.763 12.4214 219.763 11.7463C219.763 11.009 219.796 9.96102 219.858 8.61069C221.628 8.48366 223.912 8.41877 226.709 8.41601C228.766 8.41601 230.278 8.43257 231.245 8.46571V36.2552L236.215 35.7706L236.166 41.611H219.763L219.713 35.7582Z" fill="white"/>
<path d="M174.846 40.7784C173.028 39.7663 171.55 38.2385 170.6 36.3878C169.615 34.2981 169.105 32.0166 169.105 29.7065C169.105 27.3965 169.615 25.115 170.6 23.0253C171.545 21.1758 173.024 19.6533 174.846 18.6553C176.839 17.6571 179.037 17.1373 181.266 17.1373C183.495 17.1373 185.693 17.6571 187.686 18.6553C189.502 19.6525 190.974 21.1759 191.907 23.0253C192.876 25.1194 193.377 27.3992 193.377 29.7065C193.377 32.0139 192.876 34.2936 191.907 36.3878C190.968 38.2387 189.499 39.7674 187.686 40.7784C185.698 41.7926 183.498 42.3214 181.266 42.3214C179.034 42.3214 176.834 41.7926 174.846 40.7784ZM177.066 34.9795C177.566 35.5865 178.201 36.0686 178.92 36.3871C179.639 36.7057 180.422 36.852 181.208 36.8144C183.008 36.8144 184.415 36.1945 185.429 34.9546C186.442 33.7147 186.949 31.9378 186.949 29.6237C186.949 27.34 186.442 25.5948 185.429 24.388C184.415 23.1813 183.008 22.5793 181.208 22.5821C179.441 22.5821 178.06 23.1923 177.066 24.4129C176.072 25.6334 175.572 27.4021 175.566 29.719C175.569 32.011 176.07 33.7672 177.07 34.9877L177.066 34.9795Z" fill="white"/>
<path d="M200.419 40.7784C198.601 39.7663 197.124 38.2385 196.173 36.3878C195.189 34.2981 194.678 32.0166 194.678 29.7065C194.678 27.3965 195.189 25.115 196.173 23.0253C197.118 21.1758 198.598 19.6533 200.419 18.6553C202.412 17.6571 204.61 17.1373 206.839 17.1373C209.068 17.1373 211.267 17.6571 213.26 18.6553C215.076 19.6525 216.547 21.1759 217.481 23.0253C218.449 25.1194 218.951 27.3992 218.951 29.7065C218.951 32.0139 218.449 34.2936 217.481 36.3878C216.542 38.2387 215.072 39.7674 213.26 40.7784C211.272 41.7926 209.071 42.3214 206.839 42.3214C204.607 42.3214 202.407 41.7926 200.419 40.7784ZM202.635 34.9795C203.136 35.5858 203.771 36.0673 204.49 36.3858C205.209 36.7043 205.992 36.851 206.777 36.8144C208.578 36.8144 209.985 36.1945 210.998 34.9546C212.012 33.7147 212.525 31.9405 212.539 29.632C212.539 27.3483 212.032 25.6031 211.019 24.3963C210.005 23.1896 208.598 22.5876 206.798 22.5904C206.013 22.5529 205.23 22.6989 204.511 23.0167C203.792 23.3345 203.157 23.8153 202.656 24.4212C201.662 25.6445 201.163 27.4132 201.161 29.7272C201.158 32.0413 201.649 33.7948 202.635 34.9877V34.9795Z" fill="white"/>
<path d="M284.865 39.8382C283.368 38.1813 282.621 35.5359 282.624 31.9019V23.4105L278.038 23.9076V17.8601H283.009L282.595 10.864H289.583L288.812 17.8601H298.695C298.831 18.8357 298.897 19.82 298.89 20.8051C298.896 21.8425 298.831 22.8791 298.695 23.9076L289.143 23.2821V31.5663C289.143 33.3005 289.505 34.5791 290.229 35.402C290.952 36.2249 292.037 36.6391 293.484 36.6446C295.438 36.5907 297.372 36.2487 299.225 35.6298C299.578 37.1576 299.836 38.7055 300 40.2648C298.655 40.9094 297.245 41.412 295.796 41.7643C294.394 42.126 292.952 42.3124 291.504 42.3193C288.566 42.3193 286.353 41.4923 284.865 39.8382Z" fill="white"/>
<path d="M125.447 35.8079L132.153 36.0481V16.0375L125.447 16.2778L125.641 10.4788H145.374L145.565 16.2778L138.809 16.0375V36.0564L145.561 35.8162L145.37 41.6151H125.641L125.447 35.8079Z" fill="white"/>
<path d="M101.277 19.3512L101.857 16.4517L98.8666 16.7872L98.8169 13.6517L98.8666 10.4664H112.664C116.254 10.4664 119.068 11.3997 121.106 13.2664C123.144 15.1332 124.157 17.7386 124.146 21.0826C124.146 24.2334 123.164 26.7491 121.201 28.6296C119.238 30.5101 116.457 31.5802 112.859 31.8397L107.888 32.225V41.5862H101.261L101.277 19.3512ZM112.424 26.252C114.064 26.125 115.326 25.61 116.21 24.707C116.661 24.2237 117.012 23.6546 117.239 23.0334C117.467 22.4122 117.568 21.7517 117.535 21.0909C117.535 19.5445 117.093 18.3461 116.21 17.4956C115.323 16.6423 114.081 16.2156 112.482 16.2156H107.888V26.5709L112.424 26.252Z" fill="white"/>
<path d="M74.8423 25.8958C76.2829 20.6313 78.1047 15.4787 80.2933 10.4788H90.3753C92.5875 15.4903 94.4261 20.6586 95.876 25.9413C97.3358 31.074 98.4157 36.3073 99.1068 41.5986H92.3552C92.0321 39.4115 91.6455 37.288 91.1954 35.228H79.4732C79.0893 37.161 78.7027 39.2845 78.3134 41.5986H71.5617C72.2833 36.2935 73.3796 31.0461 74.8423 25.8958ZM90.135 29.6817C89.1452 25.1612 87.7904 20.7284 86.084 16.4269H84.5846C82.8793 20.7244 81.5408 25.1585 80.5833 29.6817H90.135Z" fill="white"/>
<path d="M54.2062 30.2119C53.8334 30.6012 53.4275 30.9823 53.1002 31.2805C52.773 31.5788 52.3878 31.9433 52.0523 32.2871C52.0523 32.2871 52.0523 32.3244 52.0316 32.3451C52.0109 33.8238 52.0109 35.3398 52.0109 36.8103V37.4813C52.0109 38.1979 52.0109 38.9145 52.0109 39.6393C52.042 40.985 51.7971 42.3229 51.2913 43.5703C50.7855 44.8177 50.0295 45.9482 49.0699 46.8922C47.2257 48.5857 44.801 49.5052 42.2976 49.4603C42.0987 49.4603 41.8834 49.4603 41.697 49.4396C41.2288 49.4342 40.7663 49.3366 40.3359 49.1523C39.9055 48.968 39.5157 48.7007 39.1887 48.3656C38.8617 48.0305 38.6039 47.6343 38.4302 47.1995C38.2565 46.7648 38.1701 46.3 38.1761 45.8318C38.2134 43.8933 39.7212 42.4477 41.7674 42.3897H42.5171C44.0041 42.3483 44.8905 41.4785 44.9402 39.9997C44.961 39.4322 44.9402 38.8482 44.9402 38.2973V37.5269C44.9402 36.9263 44.9402 36.3339 44.9402 35.7375C44.9402 34.325 44.9402 32.838 44.9195 31.3551C44.8797 30.6794 45.0001 30.0038 45.2707 29.3833C45.5413 28.7629 45.9546 28.2151 46.477 27.7846C46.9865 27.3704 47.4959 26.8609 47.9888 26.397L48.3409 26.0573L48.8173 25.6017C49.3226 25.1254 49.3806 24.8354 49.3806 24.7318C49.3806 24.6283 49.3226 24.3176 48.8007 23.8413L48.2001 23.2697C47.5788 22.6774 46.9367 22.0643 46.2947 21.4968C45.8504 21.1104 45.4973 20.6302 45.2609 20.0909C45.0245 19.5515 44.9108 18.9665 44.9278 18.3778C44.9278 15.2174 44.9278 12.4339 44.9278 9.60894C44.9278 8.27518 44.2692 7.38048 43.1343 7.12367C42.8368 7.07969 42.5359 7.06305 42.2354 7.07395H41.8212C39.7129 7.02425 38.1472 5.4751 38.1761 3.48273C38.2051 1.49037 39.7377 0.0737583 41.8171 0.00748426C46.2492 -0.133348 49.3723 1.71405 51.1162 5.49167C51.6121 6.73707 51.9017 8.05497 51.9736 9.39354C52.0469 10.2461 52.0649 11.1026 52.0274 11.9575V12.0279C52.0274 12.38 52.0274 12.7321 52.0274 13.0842V14.4138C52.0274 15.3002 52.0274 16.2115 52.0481 17.0938C52.0546 17.1224 52.0673 17.1493 52.0854 17.1725C52.4168 17.5204 52.802 17.8766 53.1417 18.1914L53.2369 18.2784C53.5434 18.5642 53.8624 18.8625 54.1731 19.1814C55.6232 20.6487 56.4392 22.6268 56.4454 24.6898C56.4516 26.7529 55.6475 28.7358 54.2062 30.2119Z" fill="#0068FF"/>
<path d="M22.2787 24.7028C22.2798 25.6774 21.8954 26.6128 21.2095 27.305C20.5235 27.9972 19.5916 28.39 18.617 28.3976C17.6371 28.4015 16.6958 28.0159 16.0002 27.3257C15.3046 26.6355 14.9116 25.6973 14.9078 24.7174C14.9039 23.7374 15.2895 22.7961 15.9797 22.1005C16.6699 21.4049 17.6081 21.0119 18.5881 21.0081C19.0702 21.0014 19.5488 21.0914 19.9956 21.2728C20.4424 21.4542 20.8483 21.7233 21.1893 22.0643C21.5372 22.4096 21.8127 22.8208 21.9998 23.2739C22.1868 23.7269 22.2816 24.2127 22.2787 24.7028Z" fill="#0068FF"/>
<path d="M42.2976 24.736C42.2932 25.917 41.8215 27.0483 40.9856 27.8827C40.1497 28.717 39.0175 29.1866 37.8365 29.1888C36.6584 29.1833 35.5302 28.712 34.6983 27.8778C33.8664 27.0436 33.3983 25.9141 33.3961 24.736C33.3941 24.1474 33.5096 23.5643 33.7358 23.0209C33.962 22.4775 34.2943 21.9847 34.7133 21.5714C35.123 21.1593 35.6103 20.8325 36.1471 20.6099C36.6839 20.3874 37.2595 20.2735 37.8406 20.2749C39.0217 20.2804 40.1528 20.7523 40.9876 21.5878C41.8224 22.4234 42.2932 23.5549 42.2976 24.736Z" fill="#0068FF"/>
<path d="M23.0491 24.7029C23.0474 25.5828 22.7854 26.4425 22.2959 27.1737C21.8065 27.9049 21.1115 28.4749 20.2987 28.8118C19.4858 29.1487 18.5914 29.2374 17.7282 29.0669C16.865 28.8963 16.0716 28.474 15.448 27.8533C14.8243 27.2325 14.3984 26.4411 14.2238 25.5787C14.0493 24.7163 14.1339 23.8215 14.467 23.0071C14.8002 22.1927 15.3669 21.4951 16.0959 21.0022C16.8248 20.5094 17.6833 20.2434 18.5632 20.2377C19.1474 20.2301 19.7272 20.3394 20.2685 20.5592C20.8099 20.779 21.3018 21.1049 21.7153 21.5176C22.1384 21.9331 22.4742 22.4288 22.7033 22.9758C22.9323 23.5228 23.0499 24.1099 23.0491 24.7029Z" fill="#0068FF"/>
<path d="M32.692 24.736C32.6879 25.6187 32.4226 26.4805 31.9294 27.2126C31.4362 27.9447 30.7373 28.5144 29.9208 28.8498C29.1042 29.1852 28.2066 29.2713 27.3412 29.0972C26.4758 28.9231 25.6814 28.4966 25.058 27.8716C24.5431 27.3506 24.1644 26.7108 23.9553 26.0087C23.7463 25.3066 23.7134 24.5639 23.8594 23.8461C24.0055 23.1282 24.3261 22.4574 24.7929 21.8929C25.2597 21.3283 25.8584 20.8874 26.536 20.6091C27.2136 20.3308 27.9493 20.2236 28.6781 20.2971C29.407 20.3705 30.1065 20.6223 30.715 21.0302C31.3234 21.4381 31.8221 21.9895 32.1669 22.6359C32.5117 23.2822 32.692 24.0035 32.692 24.736Z" fill="#0068FF"/>
<path d="M18.2732 45.7614C18.3221 46.6428 18.0317 47.5094 17.4617 48.1834C16.8917 48.8574 16.0853 49.2877 15.2081 49.3858C14.8052 49.4326 14.4 49.4561 13.9944 49.4562C11.7317 49.4909 9.53013 48.7218 7.78123 47.2857C6.8601 46.5289 6.09946 45.5956 5.54393 44.5407C4.98841 43.4859 4.6492 42.3307 4.54623 41.1429C4.38315 38.5104 4.35411 35.8712 4.45924 33.2356V33.1984C4.47995 32.3699 4.27285 32.0427 3.85864 31.7155C3.06056 31.0917 2.33773 30.3772 1.70473 29.5864C0.519151 28.1011 -0.0836762 26.2342 0.00936396 24.3361C0.102404 22.4379 0.884917 20.6389 2.21007 19.2767C2.57044 18.9039 2.94737 18.5559 3.27874 18.2494C3.69295 17.8849 4.02432 17.5577 4.34741 17.2139C4.37498 17.1786 4.3973 17.1396 4.41368 17.0979C4.43439 16.0499 4.41368 14.9937 4.41368 13.9665C4.41368 12.1605 4.41368 10.2965 4.51309 8.43259C4.78647 3.92181 8.7712 0.148325 13.4021 0.0364874C13.8992 0.0364874 14.3382 0.0157768 14.769 0.0364874C15.7028 0.0029814 16.6116 0.341789 17.2956 0.978376C17.9796 1.61496 18.3826 2.49719 18.4161 3.43096C18.4496 4.36474 18.1108 5.27358 17.4743 5.95755C16.8377 6.64152 15.9554 7.0446 15.0217 7.0781C14.7243 7.1058 14.4255 7.11548 14.127 7.1071H13.7707C13.2069 7.08867 12.658 7.29008 12.2399 7.66878C11.8218 8.04748 11.5672 8.57385 11.5299 9.13674C11.4636 10.0024 11.4719 10.9137 11.4802 11.7918C11.4802 12.1439 11.4802 12.5001 11.4802 12.8522V14.0949C11.4802 15.5115 11.4802 16.9943 11.4802 18.4068C11.4976 18.9845 11.3871 19.5588 11.1565 20.0888C10.9259 20.6187 10.581 21.091 10.1464 21.472C9.2434 22.3004 8.36113 23.1288 7.50785 23.9573L7.44158 24.0194C7.21653 24.2033 7.06871 24.4649 7.02737 24.7525C7.08783 25.0472 7.25813 25.3079 7.50371 25.4816L7.75224 25.7177C8.55581 26.4757 9.38837 27.2668 10.2127 28.0207C10.6389 28.3932 10.9768 28.856 11.2018 29.3755C11.4267 29.8949 11.5331 30.458 11.5133 31.0237C11.5133 31.8729 11.5133 32.7261 11.5133 33.5794V36.8931C11.5133 37.8748 11.5133 38.8606 11.5133 39.8465C11.5133 41.466 12.437 42.369 14.0731 42.3856H14.4873C14.653 42.3856 14.8228 42.3856 14.9885 42.3856C15.8573 42.4405 16.6746 42.8165 17.2816 43.4404C17.8886 44.0642 18.2421 44.8915 18.2732 45.7614Z" fill="#0068FF"/>
<mask id="mask0_1_77" style="mask-type:luminance" maskUnits="userSpaceOnUse" x="14" y="21" width="9" height="8">
<path d="M22.2787 24.7028C22.2798 25.6774 21.8954 26.6128 21.2095 27.305C20.5235 27.9972 19.5916 28.39 18.617 28.3976C17.6371 28.4015 16.6958 28.0159 16.0002 27.3257C15.3046 26.6355 14.9116 25.6973 14.9078 24.7174C14.9039 23.7374 15.2895 22.7961 15.9797 22.1005C16.6699 21.4049 17.6081 21.0119 18.5881 21.0081C19.0702 21.0014 19.5488 21.0914 19.9956 21.2728C20.4424 21.4542 20.8483 21.7233 21.1893 22.0643C21.5372 22.4096 21.8127 22.8208 21.9998 23.2739C22.1868 23.7269 22.2816 24.2127 22.2787 24.7028Z" fill="white"/>
</mask>
<g mask="url(#mask0_1_77)">
<path d="M14.9098 21.0081H14.8973V28.4101H14.9098V21.0081Z" fill="#0068FF"/>
<path d="M15.0507 21.0081H14.9099V28.4101H15.0507V21.0081Z" fill="#0068FF"/>
<path d="M15.1874 21.0081H15.0465V28.4101H15.1874V21.0081Z" fill="#0068FF"/>
<path d="M15.3282 21.0081H15.1874V28.4101H15.3282V21.0081Z" fill="#0068FF"/>
<path d="M15.469 21.0081H15.3282V28.4101H15.469V21.0081Z" fill="#0068FF"/>
<path d="M15.6057 21.0081H15.4649V28.4101H15.6057V21.0081Z" fill="#0068FF"/>
<path d="M15.7466 21.0081H15.6057V28.4101H15.7466V21.0081Z" fill="#0068FF"/>
<path d="M15.8832 21.0081H15.7424V28.4101H15.8832V21.0081Z" fill="#0068FF"/>
<path d="M16.0241 21.0081H15.8833V28.4101H16.0241V21.0081Z" fill="#0068FF"/>
<path d="M16.1608 21.0081H16.02V28.4101H16.1608V21.0081Z" fill="#0068FF"/>
<path d="M16.3016 21.0081H16.1608V28.4101H16.3016V21.0081Z" fill="#0068FF"/>
<path d="M16.4383 21.0081H16.2975V28.4101H16.4383V21.0081Z" fill="#0068FF"/>
<path d="M16.5791 21.0081H16.4383V28.4101H16.5791V21.0081Z" fill="#0068FF"/>
<path d="M16.72 21.0081H16.5791V28.4101H16.72V21.0081Z" fill="#0068FF"/>
<path d="M16.8567 21.0081H16.7158V28.4101H16.8567V21.0081Z" fill="#0068FF"/>
<path d="M16.9975 21.0081H16.8566V28.4101H16.9975V21.0081Z" fill="#0068FF"/>
<path d="M17.1342 21.0081H16.9933V28.4101H17.1342V21.0081Z" fill="#0068FF"/>
<path d="M17.275 21.0081H17.1342V28.4101H17.275V21.0081Z" fill="#0068FF"/>
<path d="M17.4117 21.0081H17.2709V28.4101H17.4117V21.0081Z" fill="#0068FF"/>
<path d="M17.5525 21.0081H17.4117V28.4101H17.5525V21.0081Z" fill="#0068FF"/>
<path d="M17.6934 21.0081H17.5525V28.4101H17.6934V21.0081Z" fill="#0068FF"/>
<path d="M17.83 21.0081H17.6892V28.4101H17.83V21.0081Z" fill="#0068FF"/>
<path d="M17.9709 21.0081H17.83V28.4101H17.9709V21.0081Z" fill="#0068FF"/>
<path d="M18.1076 21.0081H17.9667V28.4101H18.1076V21.0081Z" fill="#0068FF"/>
<path d="M18.2484 21.0081H18.1076V28.4101H18.2484V21.0081Z" fill="#0068FF"/>
<path d="M18.3851 21.0081H18.2443V28.4101H18.3851V21.0081Z" fill="#0068FF"/>
<path d="M18.5259 21.0081H18.3851V28.4101H18.5259V21.0081Z" fill="#0068FF"/>
<path d="M18.6626 21.0081H18.5218V28.4101H18.6626V21.0081Z" fill="#0068FF"/>
<path d="M18.8035 21.0081H18.6626V28.4101H18.8035V21.0081Z" fill="#0068FF"/>
<path d="M18.9443 21.0081H18.8035V28.4101H18.9443V21.0081Z" fill="#0068FF"/>
<path d="M19.081 21.0081H18.9402V28.4101H19.081V21.0081Z" fill="#0068FF"/>
<path d="M19.2218 21.0081H19.081V28.4101H19.2218V21.0081Z" fill="#0068FF"/>
<path d="M19.3585 21.0081H19.2177V28.4101H19.3585V21.0081Z" fill="#0068FF"/>
<path d="M19.4994 21.0081H19.3585V28.4101H19.4994V21.0081Z" fill="#0068FF"/>
<path d="M19.636 21.0081H19.4952V28.4101H19.636V21.0081Z" fill="#0068FF"/>
<path d="M19.7769 21.0081H19.636V28.4101H19.7769V21.0081Z" fill="#0068FF"/>
<path d="M19.9135 21.0081H19.7727V28.4101H19.9135V21.0081Z" fill="#0068FF"/>
<path d="M20.0544 21.0081H19.9135V28.4101H20.0544V21.0081Z" fill="#0068FF"/>
<path d="M20.1952 21.0081H20.0544V28.4101H20.1952V21.0081Z" fill="#0068FF"/>
<path d="M20.3319 21.0081H20.1911V28.4101H20.3319V21.0081Z" fill="#0068FF"/>
<path d="M20.4727 21.0081H20.3319V28.4101H20.4727V21.0081Z" fill="#0068FF"/>
<path d="M20.6094 21.0081H20.4686V28.4101H20.6094V21.0081Z" fill="#0068FF"/>
<path d="M20.7503 21.0081H20.6094V28.4101H20.7503V21.0081Z" fill="#0068FF"/>
<path d="M20.887 21.0081H20.7461V28.4101H20.887V21.0081Z" fill="#0068FF"/>
<path d="M21.0278 21.0081H20.8869V28.4101H21.0278V21.0081Z" fill="#0068FF"/>
<path d="M21.1686 21.0081H21.0278V28.4101H21.1686V21.0081Z" fill="#0068FF"/>
<path d="M21.3053 21.0081H21.1645V28.4101H21.3053V21.0081Z" fill="#0068FF"/>
<path d="M21.4461 21.0081H21.3053V28.4101H21.4461V21.0081Z" fill="#0068FF"/>
<path d="M21.5828 21.0081H21.442V28.4101H21.5828V21.0081Z" fill="#0068FF"/>
<path d="M21.7237 21.0081H21.5828V28.4101H21.7237V21.0081Z" fill="#0068FF"/>
<path d="M21.8603 21.0081H21.7195V28.4101H21.8603V21.0081Z" fill="#0068FF"/>
<path d="M22.0012 21.0081H21.8604V28.4101H22.0012V21.0081Z" fill="#0068FF"/>
<path d="M22.1379 21.0081H21.997V28.4101H22.1379V21.0081Z" fill="#0068FF"/>
<path d="M22.2787 21.0081H22.1379V28.4101H22.2787V21.0081Z" fill="#0068FF"/>
</g>
</svg>
