<svg id="Layer_1" data-name="Layer 1" xmlns="http://www.w3.org/2000/svg" xmlns:xlink="http://www.w3.org/1999/xlink" viewBox="0 0 1080 1080"><defs><style>.cls-1{fill:#0068ff;}.cls-2{clip-path:url(#clip-path);}</style><clipPath id="clip-path"><path class="cls-1" d="M231.67,539.92v0a8.91,8.91,0,0,1-8.84,8.92h0a8.92,8.92,0,0,1-.07-17.84,8.71,8.71,0,0,1,6.28,2.55A8.9,8.9,0,0,1,231.67,539.92Z"/></clipPath></defs><path class="cls-1" d="M231.67,539.92v0a8.91,8.91,0,0,1-8.84,8.92h0a8.92,8.92,0,0,1-.07-17.84,8.71,8.71,0,0,1,6.28,2.55A8.9,8.9,0,0,1,231.67,539.92Z"/><g class="cls-2"><rect class="cls-1" x="213.85" y="531" width="0.03" height="17.87"/><rect class="cls-1" x="213.88" y="531" width="0.34" height="17.87"/><rect class="cls-1" x="214.21" y="531" width="0.34" height="17.87"/><rect class="cls-1" x="214.55" y="531" width="0.34" height="17.87"/><rect class="cls-1" x="214.89" y="531" width="0.34" height="17.87"/><rect class="cls-1" x="215.22" y="531" width="0.34" height="17.87"/><rect class="cls-1" x="215.56" y="531" width="0.34" height="17.87"/><rect class="cls-1" x="215.89" y="531" width="0.34" height="17.87"/><rect class="cls-1" x="216.23" y="531" width="0.34" height="17.87"/><rect class="cls-1" x="216.56" y="531" width="0.34" height="17.87"/><rect class="cls-1" x="216.9" y="531" width="0.34" height="17.87"/><rect class="cls-1" x="217.23" y="531" width="0.34" height="17.87"/><rect class="cls-1" x="217.57" y="531" width="0.34" height="17.87"/><rect class="cls-1" x="217.91" y="531" width="0.34" height="17.87"/><rect class="cls-1" x="218.24" y="531" width="0.34" height="17.87"/><rect class="cls-1" x="218.58" y="531" width="0.34" height="17.87"/><rect class="cls-1" x="218.91" y="531" width="0.34" height="17.87"/><rect class="cls-1" x="219.25" y="531" width="0.34" height="17.87"/><rect class="cls-1" x="219.58" y="531" width="0.34" height="17.87"/><rect class="cls-1" x="219.92" y="531" width="0.34" height="17.87"/><rect class="cls-1" x="220.26" y="531" width="0.34" height="17.87"/><rect class="cls-1" x="220.59" y="531" width="0.34" height="17.87"/><rect class="cls-1" x="220.93" y="531" width="0.34" height="17.87"/><rect class="cls-1" x="221.26" y="531" width="0.34" height="17.87"/><rect class="cls-1" x="221.6" y="531" width="0.34" height="17.87"/><rect class="cls-1" x="221.93" y="531" width="0.34" height="17.87"/><rect class="cls-1" x="222.27" y="531" width="0.34" height="17.87"/><rect class="cls-1" x="222.6" y="531" width="0.34" height="17.87"/><rect class="cls-1" x="222.94" y="531" width="0.34" height="17.87"/><rect class="cls-1" x="223.28" y="531" width="0.34" height="17.87"/><rect class="cls-1" x="223.61" y="531" width="0.34" height="17.87"/><rect class="cls-1" x="223.95" y="531" width="0.34" height="17.87"/><rect class="cls-1" x="224.28" y="531" width="0.34" height="17.87"/><rect class="cls-1" x="224.62" y="531" width="0.34" height="17.87"/><rect class="cls-1" x="224.95" y="531" width="0.34" height="17.87"/><rect class="cls-1" x="225.29" y="531" width="0.34" height="17.87"/><rect class="cls-1" x="225.62" y="531" width="0.34" height="17.87"/><rect class="cls-1" x="225.96" y="531" width="0.34" height="17.87"/><rect class="cls-1" x="226.3" y="531" width="0.34" height="17.87"/><rect class="cls-1" x="226.63" y="531" width="0.34" height="17.87"/><rect class="cls-1" x="226.97" y="531" width="0.34" height="17.87"/><rect class="cls-1" x="227.3" y="531" width="0.34" height="17.87"/><rect class="cls-1" x="227.64" y="531" width="0.34" height="17.87"/><rect class="cls-1" x="227.97" y="531" width="0.34" height="17.87"/><rect class="cls-1" x="228.31" y="531" width="0.34" height="17.87"/><rect class="cls-1" x="228.65" y="531" width="0.34" height="17.87"/><rect class="cls-1" x="228.98" y="531" width="0.34" height="17.87"/><rect class="cls-1" x="229.32" y="531" width="0.34" height="17.87"/><rect class="cls-1" x="229.65" y="531" width="0.34" height="17.87"/><rect class="cls-1" x="229.99" y="531" width="0.34" height="17.87"/><rect class="cls-1" x="230.32" y="531" width="0.34" height="17.87"/><rect class="cls-1" x="230.66" y="531" width="0.34" height="17.87"/><rect class="cls-1" x="230.99" y="531" width="0.34" height="17.87"/><rect class="cls-1" x="231.33" y="531" width="0.34" height="17.87"/></g><path class="cls-1" d="M308.75,553.22c-.9.94-1.88,1.86-2.67,2.58s-1.72,1.6-2.53,2.43c0,0,0,.09-.05.14-.05,3.57-.05,7.23-.05,10.78v1.62c0,1.73,0,3.46,0,5.21a23.79,23.79,0,0,1-7.1,17.51,23.55,23.55,0,0,1-16.35,6.2c-.48,0-1,0-1.45-.05a8.6,8.6,0,0,1-8.5-8.71c.09-4.68,3.73-8.17,8.67-8.31h1.81c3.59-.1,5.73-2.2,5.85-5.77.05-1.37,0-2.78,0-4.11v-1.86c0-1.45,0-2.88,0-4.32,0-3.41,0-7-.05-10.58a10.38,10.38,0,0,1,3.76-8.62c1.23-1,2.46-2.23,3.65-3.35l.85-.82,1.15-1.1c1.22-1.15,1.36-1.85,1.36-2.1s-.14-1-1.4-2.15l-1.45-1.38c-1.5-1.43-3.05-2.91-4.6-4.28a9.61,9.61,0,0,1-3.3-7.53c0-7.63,0-14.35,0-21.17,0-3.22-1.59-5.38-4.33-6a11.89,11.89,0,0,0-2.17-.12h-1c-5.09-.12-8.87-3.86-8.8-8.67s3.77-8.23,8.79-8.39c10.7-.34,18.24,4.12,22.45,13.24a29.78,29.78,0,0,1,2.07,9.42,47.82,47.82,0,0,1,.13,6.19v.17c0,.85,0,1.7,0,2.55v3.21c0,2.14,0,4.34.05,6.47a.48.48,0,0,0,.09.19c.8.84,1.73,1.7,2.55,2.46l.23.21c.74.69,1.51,1.41,2.26,2.18A19,19,0,0,1,308.75,553.22Z"/><path class="cls-1" d="M222,590.76a8.34,8.34,0,0,1-7.4,8.75,25.49,25.49,0,0,1-2.93.17,23.08,23.08,0,0,1-15-5.24,21.61,21.61,0,0,1-7.81-14.83,187.73,187.73,0,0,1-.21-19.09v-.09c.05-2-.45-2.79-1.45-3.58a31.54,31.54,0,0,1-5.2-5.14,18.84,18.84,0,0,1,1.22-24.89c.87-.9,1.78-1.74,2.58-2.48,1-.88,1.8-1.67,2.58-2.5a1.12,1.12,0,0,0,.16-.28c.05-2.53,0-5.08,0-7.56,0-4.36,0-8.86.24-13.36.66-10.89,10.28-20,21.46-20.27,1.2,0,2.26-.05,3.3,0a8.5,8.5,0,0,1,.61,17,17.88,17.88,0,0,1-2.16.07h-.86a5.25,5.25,0,0,0-5.41,4.9c-.16,2.09-.14,4.29-.12,6.41,0,.85,0,1.71,0,2.56v3c0,3.42,0,7,0,10.41a9.46,9.46,0,0,1-3.22,7.4c-2.18,2-4.31,4-6.37,6l-.16.15a2.8,2.8,0,0,0-1,1.77A2.86,2.86,0,0,0,196,541.8l.6.57c1.94,1.83,3.95,3.74,5.94,5.56a9.2,9.2,0,0,1,3.14,7.25c0,2.05,0,4.11,0,6.17v8c0,2.37,0,4.75,0,7.13,0,3.91,2.23,6.09,6.18,6.13h1c.4,0,.81,0,1.21,0A8.47,8.47,0,0,1,222,590.76Z"/><path class="cls-1" d="M280,540a10.79,10.79,0,0,1-10.77,10.75A10.77,10.77,0,0,1,258.51,540a10.68,10.68,0,0,1,3.18-7.64,10.61,10.61,0,0,1,7.55-3.13A10.81,10.81,0,0,1,280,540Z"/><path class="cls-1" d="M233.53,539.92v0a10.76,10.76,0,1,1-10.83-10.78,10.58,10.58,0,0,1,7.61,3.09A10.76,10.76,0,0,1,233.53,539.92Z"/><path class="cls-1" d="M256.81,540a10.79,10.79,0,0,1-18.43,7.57A10.77,10.77,0,1,1,256.81,540Z"/><path d="M358.57,542.8a271.59,271.59,0,0,1,13.16-37.22h24.34a268.22,268.22,0,0,1,13.28,37.33,262.4,262.4,0,0,1,7.8,37.8h-16.3q-1.17-7.92-2.8-15.38h-28.3q-1.39,7-2.8,15.38h-16.3A273.9,273.9,0,0,1,358.57,542.8Zm36.92,9.14a206.66,206.66,0,0,0-9.78-32h-3.62a197.87,197.87,0,0,0-9.66,32Z"/><path d="M422.39,527l1.4-7-7.22.81-.12-7.57.12-7.69h33.31q13,0,20.38,6.76t7.34,18.87q0,11.41-7.11,18.22t-20.14,7.75l-12,.93v22.6h-16Zm26.91,16.66q5.94-.46,9.14-3.73a11.93,11.93,0,0,0,3.2-8.73q0-5.6-3.2-8.68c-2.14-2.06-5.14-3.09-9-3.09H438.35v25Z"/><path d="M480.74,566.73l16.19.58V519l-16.19.58.47-14h47.64l.46,14L513,519v48.33l16.3-.58-.46,14H481.21Z"/><path d="M547.89,576.46q-5.42-6-5.42-19.16V536.8L531.41,538V523.4h12l-1-16.89h16.89l-1.86,16.89h23.88a49.08,49.08,0,0,1,.46,7.11,54.84,54.84,0,0,1-.46,7.45l-23.07-1.51v20q0,6.28,2.63,9.26t7.86,3a47.93,47.93,0,0,0,13.86-2.45,91.44,91.44,0,0,1,1.86,11.19,51.47,51.47,0,0,1-10.13,3.66,42.36,42.36,0,0,1-10.37,1.34Q553.31,582.45,547.89,576.46Z"/><path d="M600,578.73a25.43,25.43,0,0,1-10.25-10.6,37.84,37.84,0,0,1,0-32.26A25,25,0,0,1,600,525.32a34.61,34.61,0,0,1,31,0,24.77,24.77,0,0,1,10.19,10.55,38.42,38.42,0,0,1,0,32.26A25.18,25.18,0,0,1,631,578.73a34.11,34.11,0,0,1-31,0Zm5.36-14a12.2,12.2,0,0,0,10,4.43q6.52,0,10.19-4.49t3.67-12.87q0-8.27-3.67-12.64t-10.19-4.36q-6.4,0-10,4.42t-3.62,12.81Q601.75,560.33,605.37,564.75Z"/><path d="M661.74,578.73a25.43,25.43,0,0,1-10.25-10.6,37.84,37.84,0,0,1,0-32.26,25,25,0,0,1,10.25-10.55,34.61,34.61,0,0,1,31,0,24.77,24.77,0,0,1,10.19,10.55,38.42,38.42,0,0,1,0,32.26,25.18,25.18,0,0,1-10.19,10.6,34.11,34.11,0,0,1-31,0Zm5.35-14a12.23,12.23,0,0,0,10,4.43q6.52,0,10.19-4.49T691,551.82q0-8.27-3.67-12.64t-10.19-4.36a12.22,12.22,0,0,0-10,4.42q-3.6,4.43-3.61,12.81T667.09,564.75Z"/><path d="M708.32,566.61l12.47,1V514q-7.81,1.28-12.12,2.21c-.15-3.41-.23-5.94-.23-7.57,0-1.78.08-4.31.23-7.57q6.41-.46,16.54-.47,7.45,0,10.95.12v67.09l12-1.17-.12,14.1h-39.6Z"/><path d="M780.88,559.39a51.45,51.45,0,0,1-10.71,5.94v15.38H754.79V514.09l-6.87.81q-.23-7.22-.23-10V501q5.59-.46,13.16-.47,6.4,0,9.32.24v50a53.06,53.06,0,0,0,12.58-12.63,43.82,43.82,0,0,0,6.75-14.74q5.13-.23,8-.23c2,0,4.73.08,8.15.23a54.34,54.34,0,0,1-5.3,13.8,66.11,66.11,0,0,1-9.26,13.11,328.13,328.13,0,0,1,17.94,30.4H791Q785.19,567.9,780.88,559.39Z"/><path d="M810.46,566.61l11.65,1v-31l-11.06,2.1c-.24-2.57-.35-5.09-.35-7.57s.11-5.05.35-7.46q6.29-.59,15.25-.58,3.74,0,11.19.23v44.38L848,566.61l-.12,14.1H810.58Zm9.79-53.46a8.21,8.21,0,0,1-2.8-6.52,8.36,8.36,0,0,1,2.8-6.64q2.79-2.44,7.69-2.44a10.88,10.88,0,0,1,7.51,2.44,8.47,8.47,0,0,1,2.73,6.64,8.32,8.32,0,0,1-2.73,6.52,10.88,10.88,0,0,1-7.51,2.45Q823,515.6,820.25,513.15Z"/><path d="M865.61,576.46q-5.42-6-5.41-19.16V536.8L849.13,538V523.4h12l-1-16.89H877l-1.86,16.89H899a49,49,0,0,1,.47,7.11A54.75,54.75,0,0,1,899,538l-23.06-1.51v20q0,6.28,2.62,9.26t7.86,3a47.93,47.93,0,0,0,13.86-2.45,93.13,93.13,0,0,1,1.87,11.19A51.8,51.8,0,0,1,892,581.11a42.28,42.28,0,0,1-10.36,1.34Q871,582.45,865.61,576.46Z"/></svg>