<svg width="726" height="120" viewBox="0 0 726 120" fill="none" xmlns="http://www.w3.org/2000/svg">
<path d="M370.89 96.46C367.277 92.46 365.47 86.0733 365.47 77.3V56.8L354.41 58V43.4H366.41L365.41 26.51H382.3L380.44 43.4H404.32C404.645 45.7558 404.799 48.132 404.78 50.51C404.796 53.0009 404.642 55.49 404.32 57.96L381.25 56.45V76.45C381.25 80.6367 382.127 83.7234 383.88 85.71C385.633 87.6967 388.253 88.6967 391.74 88.71C396.455 88.5798 401.126 87.7543 405.6 86.26C406.451 89.9479 407.072 93.6851 407.46 97.45C404.221 99.0209 400.825 100.248 397.33 101.11C393.942 101.983 390.459 102.433 386.96 102.45C379.86 102.45 374.503 100.453 370.89 96.46Z" fill="black"/>
<path d="M633.46 86.61L645.11 87.61V56.61L634.05 58.71C633.81 56.14 633.7 53.62 633.7 51.14C633.7 48.66 633.81 46.09 634.05 43.68C638.243 43.2867 643.327 43.0933 649.3 43.1C651.793 43.1 655.523 43.1767 660.49 43.33V87.71L671 86.61L670.88 100.71H633.58L633.46 86.61ZM643.25 33.15C642.325 32.3418 641.594 31.3365 641.109 30.2081C640.625 29.0797 640.399 27.857 640.45 26.63C640.392 25.3845 640.613 24.1417 641.098 22.9928C641.582 21.8439 642.318 20.8179 643.25 19.99C645.11 18.3633 647.673 17.55 650.94 17.55C653.661 17.3941 656.341 18.2649 658.45 19.99C659.364 20.8293 660.082 21.8591 660.553 23.0064C661.025 24.1538 661.239 25.3908 661.18 26.63C661.232 27.8506 661.014 29.0675 660.542 30.1943C660.07 31.3212 659.356 32.3303 658.45 33.15C656.342 34.8787 653.662 35.753 650.94 35.6C647.647 35.6 645.083 34.7834 643.25 33.15Z" fill="black"/>
<path d="M603.88 79.39C600.559 81.7894 596.964 83.7835 593.17 85.33V100.71H577.79V34.09L570.92 34.9C570.767 30.0867 570.69 26.7533 570.69 24.9V21C574.417 20.6933 578.803 20.5367 583.85 20.53C588.117 20.53 591.223 20.61 593.17 20.77V70.77C598.046 67.2996 602.299 63.0293 605.75 58.14C608.897 53.6893 611.186 48.6904 612.5 43.4C615.92 43.2467 618.587 43.17 620.5 43.17C622.5 43.17 625.23 43.25 628.65 43.4C627.52 48.22 625.737 52.8629 623.35 57.2C620.807 61.9299 617.698 66.3323 614.09 70.31C620.611 80.1141 626.6 90.2621 632.03 100.71H614C610.127 92.17 606.753 85.0633 603.88 79.39Z" fill="black"/>
<path d="M531.32 86.61L543.79 87.61V34C538.583 34.8533 534.543 35.59 531.67 36.21C531.52 32.8 531.44 30.27 531.44 28.64C531.44 26.86 531.52 24.33 531.67 21.07C535.943 20.7633 541.457 20.6067 548.21 20.6C553.177 20.6 556.827 20.64 559.16 20.72V87.81L571.16 86.64L571.04 100.74H531.44L531.32 86.61Z" fill="black"/>
<path d="M423 98.73C418.611 96.2865 415.045 92.5981 412.75 88.13C410.373 83.0851 409.14 77.577 409.14 72C409.14 66.423 410.373 60.9149 412.75 55.87C415.031 51.405 418.603 47.7292 423 45.32C427.811 42.91 433.119 41.6552 438.5 41.6552C443.881 41.6552 449.189 42.91 454 45.32C458.384 47.7273 461.936 51.4052 464.19 55.87C466.529 60.9257 467.74 66.4296 467.74 72C467.74 77.5704 466.529 83.0743 464.19 88.13C461.924 92.5985 458.376 96.2892 454 98.73C449.2 101.179 443.888 102.455 438.5 102.455C433.112 102.455 427.8 101.179 423 98.73ZM428.36 84.73C429.567 86.1956 431.1 87.3593 432.836 88.1284C434.572 88.8975 436.463 89.2507 438.36 89.16C442.707 89.16 446.103 87.6633 448.55 84.67C450.997 81.6766 452.22 77.3867 452.22 71.8C452.22 66.2867 450.997 62.0733 448.55 59.16C446.103 56.2466 442.707 54.7933 438.36 54.8C434.093 54.8 430.76 56.2733 428.36 59.22C425.96 62.1666 424.753 66.4367 424.74 72.03C424.747 77.5634 425.957 81.8033 428.37 84.75L428.36 84.73Z" fill="black"/>
<path d="M484.74 98.73C480.351 96.2865 476.785 92.5981 474.49 88.13C472.113 83.0851 470.88 77.577 470.88 72C470.88 66.423 472.113 60.9149 474.49 55.87C476.771 51.405 480.343 47.7292 484.74 45.32C489.551 42.91 494.859 41.6552 500.24 41.6552C505.621 41.6552 510.928 42.91 515.74 45.32C520.124 47.7273 523.676 51.4052 525.93 55.87C528.269 60.9257 529.48 66.4296 529.48 72C529.48 77.5704 528.269 83.0743 525.93 88.13C523.664 92.5985 520.116 96.2892 515.74 98.73C510.94 101.179 505.628 102.455 500.24 102.455C494.852 102.455 489.54 101.179 484.74 98.73ZM490.09 84.73C491.299 86.1938 492.832 87.3563 494.567 88.1252C496.303 88.8941 498.194 89.2483 500.09 89.16C504.437 89.16 507.833 87.6633 510.28 84.67C512.727 81.6766 513.967 77.3933 514 71.82C514 66.3067 512.777 62.0933 510.33 59.18C507.883 56.2667 504.487 54.8133 500.14 54.82C498.244 54.7297 496.354 55.082 494.618 55.8492C492.882 56.6164 491.349 57.7774 490.14 59.24C487.74 62.1933 486.537 66.4633 486.53 72.05C486.523 77.6367 487.71 81.87 490.09 84.75V84.73Z" fill="black"/>
<path d="M688.61 96.46C684.997 92.46 683.193 86.0733 683.2 77.3V56.8L672.13 58V43.4H684.13L683.13 26.51H700L698.14 43.4H722C722.329 45.7555 722.486 48.1317 722.47 50.51C722.485 53.0145 722.328 55.517 722 58L698.94 56.49V76.49C698.94 80.6767 699.813 83.7633 701.56 85.75C703.307 87.7367 705.927 88.7367 709.42 88.75C714.135 88.6198 718.806 87.7942 723.28 86.3C724.13 89.9885 724.755 93.7255 725.15 97.49C721.902 99.0463 718.5 100.259 715 101.11C711.615 101.983 708.135 102.433 704.64 102.45C697.547 102.45 692.203 100.453 688.61 96.46Z" fill="black"/>
<path d="M303.74 86.73L319.93 87.31V39L303.74 39.58L304.21 25.58H351.85L352.31 39.58L336 39V87.33L352.3 86.75L351.84 100.75H304.21L303.74 86.73Z" fill="black"/>
<path d="M245.39 47L246.79 40L239.57 40.81L239.45 33.24L239.57 25.55H272.88C281.547 25.55 288.34 27.8033 293.26 32.31C298.18 36.8167 300.627 43.1067 300.6 51.18C300.6 58.7867 298.23 64.86 293.49 69.4C288.75 73.94 282.037 76.5234 273.35 77.15L261.35 78.08V100.68H245.35L245.39 47ZM272.3 63.66C276.26 63.3533 279.307 62.11 281.44 59.93C282.531 58.7631 283.376 57.3892 283.926 55.8896C284.475 54.39 284.718 52.7953 284.64 51.2C284.64 47.4667 283.573 44.5734 281.44 42.52C279.3 40.46 276.3 39.43 272.44 39.43H261.35V64.43L272.3 63.66Z" fill="black"/>
<path d="M181.57 62.8C185.048 50.0905 189.446 37.651 194.73 25.58H219.07C224.411 37.6789 228.85 50.1563 232.35 62.91C235.874 75.3014 238.481 87.9356 240.15 100.71H223.85C223.07 95.43 222.137 90.3034 221.05 85.33H192.75C191.823 89.9967 190.89 95.1234 189.95 100.71H173.65C175.392 87.9023 178.039 75.2339 181.57 62.8ZM218.49 71.94C216.1 61.0265 212.83 50.3248 208.71 39.94H205.09C200.973 50.3151 197.742 61.02 195.43 71.94H218.49Z" fill="black"/>
<path d="M131.75 73.22C130.85 74.16 129.87 75.08 129.08 75.8C128.29 76.52 127.36 77.4 126.55 78.23C126.55 78.23 126.55 78.32 126.5 78.37C126.45 81.94 126.45 85.6 126.45 89.15V90.77C126.45 92.5 126.45 94.23 126.45 95.98C126.525 99.2288 125.934 102.459 124.713 105.47C123.492 108.482 121.667 111.211 119.35 113.49C114.898 117.578 109.044 119.798 103 119.69C102.52 119.69 102 119.69 101.55 119.64C100.42 119.627 99.3032 119.391 98.2641 118.946C97.225 118.501 96.2839 117.856 95.4944 117.047C94.705 116.238 94.0827 115.281 93.6633 114.232C93.2439 113.182 93.0355 112.06 93.05 110.93C93.14 106.25 96.78 102.76 101.72 102.62H103.53C107.12 102.52 109.26 100.42 109.38 96.85C109.43 95.48 109.38 94.07 109.38 92.74V90.88C109.38 89.43 109.38 88 109.38 86.56C109.38 83.15 109.38 79.56 109.33 75.98C109.234 74.3486 109.524 72.7176 110.178 71.2197C110.831 69.7218 111.829 68.3994 113.09 67.36C114.32 66.36 115.55 65.13 116.74 64.01L117.59 63.19L118.74 62.09C119.96 60.94 120.1 60.24 120.1 59.99C120.1 59.74 119.96 58.99 118.7 57.84L117.25 56.46C115.75 55.03 114.2 53.55 112.65 52.18C111.577 51.2471 110.725 50.0878 110.154 48.7857C109.583 47.4836 109.309 46.0711 109.35 44.65C109.35 37.02 109.35 30.3 109.35 23.48C109.35 20.26 107.76 18.1 105.02 17.48C104.302 17.3739 103.575 17.3337 102.85 17.36H101.85C96.76 17.24 92.98 13.5 93.05 8.69C93.12 3.88 96.82 0.45999 101.84 0.29999C112.54 -0.04001 120.08 4.42001 124.29 13.54C125.487 16.5467 126.186 19.7284 126.36 22.96C126.537 25.0184 126.58 27.086 126.49 29.15V29.32C126.49 30.17 126.49 31.02 126.49 31.87V35.08C126.49 37.22 126.49 39.42 126.54 41.55C126.556 41.6192 126.586 41.6841 126.63 41.74C127.43 42.58 128.36 43.44 129.18 44.2L129.41 44.41C130.15 45.1 130.92 45.82 131.67 46.59C135.171 50.1325 137.141 54.908 137.156 59.8886C137.171 64.8692 135.23 69.6565 131.75 73.22Z" fill="#0068FF"/>
<path d="M54.67 59.92C54.6727 62.2727 53.7448 64.531 52.0886 66.2021C50.4325 67.8732 48.1827 68.8215 45.83 68.84C43.4643 68.8493 41.1918 67.9184 39.5124 66.2521C37.833 64.5859 36.8843 62.3207 36.875 59.955C36.8657 57.5893 37.7966 55.3167 39.4629 53.6373C41.1291 51.9579 43.3943 51.0093 45.76 51C46.9241 50.9838 48.0796 51.2011 49.1582 51.6391C50.2369 52.0771 51.2168 52.7268 52.04 53.55C52.8798 54.3836 53.545 55.3763 53.9966 56.4701C54.4482 57.5638 54.6771 58.7367 54.67 59.92Z" fill="#0068FF"/>
<path d="M103 60C102.989 62.8513 101.851 65.5825 99.8327 67.5968C97.8146 69.6111 95.0813 70.7448 92.23 70.75C89.3858 70.7368 86.6622 69.5991 84.6538 67.5851C82.6454 65.571 81.5153 62.8443 81.51 60C81.5052 58.5791 81.7839 57.1714 82.33 55.8595C82.876 54.5476 83.6783 53.3579 84.69 52.36C85.679 51.3651 86.8556 50.5761 88.1515 50.0388C89.4475 49.5016 90.8371 49.2267 92.24 49.23C95.0914 49.2432 97.8221 50.3824 99.8374 52.3996C101.853 54.4168 102.989 57.1486 103 60Z" fill="#0068FF"/>
<path d="M56.53 59.92C56.526 62.0443 55.8933 64.1199 54.7116 65.8852C53.53 67.6505 51.8522 69.0265 49.8898 69.8399C47.9274 70.6532 45.7682 70.8675 43.6842 70.4557C41.6002 70.0439 39.6847 69.0245 38.1792 67.5258C36.6736 66.0272 35.6453 64.1165 35.2239 62.0345C34.8025 59.9524 35.0067 57.7922 35.811 55.826C36.6153 53.8599 37.9835 52.1757 39.7433 50.9859C41.5031 49.7961 43.5758 49.1539 45.7 49.14C47.1104 49.1218 48.5102 49.3858 49.8171 49.9164C51.124 50.4471 52.3115 51.2337 53.31 52.23C54.3313 53.2332 55.1421 54.4301 55.695 55.7505C56.248 57.071 56.5318 58.4885 56.53 59.92Z" fill="#0068FF"/>
<path d="M79.81 60C79.8003 62.1311 79.1597 64.2116 77.9691 65.9791C76.7784 67.7466 75.091 69.1219 73.1197 69.9316C71.1484 70.7413 68.9815 70.9492 66.8922 70.5289C64.8029 70.1086 62.8849 69.079 61.38 67.57C60.1368 66.3122 59.2225 64.7676 58.7179 63.0726C58.2132 61.3777 58.1337 59.5845 58.4863 57.8515C58.839 56.1185 59.613 54.499 60.74 53.1361C61.8669 51.7732 63.3122 50.7087 64.9481 50.0368C66.5839 49.3649 68.3601 49.1062 70.1197 49.2834C71.8793 49.4607 73.5682 50.0686 75.0371 51.0533C76.5061 52.0381 77.7099 53.3695 78.5424 54.9298C79.3748 56.4902 79.8102 58.2315 79.81 60Z" fill="#0068FF"/>
<path d="M45 110.76C45.118 112.888 44.4169 114.98 43.0408 116.607C41.6647 118.234 39.7179 119.273 37.6 119.51C36.6274 119.623 35.6491 119.68 34.67 119.68C29.2074 119.764 23.8922 117.907 19.67 114.44C17.4462 112.613 15.6098 110.36 14.2687 107.813C12.9275 105.266 12.1086 102.477 11.86 99.61C11.4663 93.2543 11.3962 86.8828 11.65 80.52V80.43C11.7 78.43 11.2 77.64 10.2 76.85C8.27325 75.344 6.5282 73.6192 4.99999 71.71C2.13774 68.1242 0.682387 63.6171 0.907006 59.0345C1.13163 54.4519 3.02078 50.1087 6.21999 46.82C7.08999 45.92 8 45.08 8.8 44.34C9.8 43.46 10.6 42.67 11.38 41.84C11.4466 41.7549 11.5004 41.6606 11.54 41.56C11.59 39.03 11.54 36.48 11.54 34C11.54 29.64 11.54 25.14 11.78 20.64C12.44 9.75002 22.06 0.640001 33.24 0.370001C34.44 0.370001 35.5 0.320001 36.54 0.370001C38.7943 0.28911 40.9885 1.10707 42.6397 2.64393C44.291 4.18079 45.2641 6.31067 45.345 8.56501C45.4259 10.8193 44.6079 13.0135 43.0711 14.6647C41.5342 16.316 39.4043 17.2891 37.15 17.37C36.4321 17.4369 35.7108 17.4602 34.99 17.44H34.13C32.7688 17.3955 31.4436 17.8818 30.4341 18.796C29.4247 19.7103 28.8101 20.9811 28.72 22.34C28.56 24.43 28.58 26.63 28.6 28.75C28.6 29.6 28.6 30.46 28.6 31.31V34.31C28.6 37.73 28.6 41.31 28.6 44.72C28.6422 46.1146 28.3754 47.5012 27.8187 48.7806C27.262 50.0599 26.4292 51.2003 25.38 52.12C23.2 54.12 21.07 56.12 19.01 58.12L18.85 58.27C18.3067 58.7139 17.9498 59.3455 17.85 60.04C17.996 60.7514 18.4071 61.3806 19 61.8L19.6 62.37C21.54 64.2 23.55 66.11 25.54 67.93C26.569 68.8294 27.3847 69.9467 27.9279 71.2008C28.471 72.4548 28.7279 73.8142 28.68 75.18C28.68 77.23 28.68 79.29 28.68 81.35V89.35C28.68 91.72 28.68 94.1 28.68 96.48C28.68 100.39 30.91 102.57 34.86 102.61H35.86C36.26 102.61 36.67 102.61 37.07 102.61C39.1673 102.743 41.1404 103.65 42.606 105.156C44.0715 106.663 44.9248 108.66 45 110.76Z" fill="#0068FF"/>
<mask id="mask0_1_77" style="mask-type:luminance" maskUnits="userSpaceOnUse" x="36" y="50" width="19" height="19">
<path d="M54.67 59.92C54.6727 62.2727 53.7448 64.531 52.0886 66.2021C50.4325 67.8732 48.1827 68.8215 45.83 68.84C43.4643 68.8493 41.1918 67.9184 39.5124 66.2521C37.833 64.5859 36.8843 62.3207 36.875 59.955C36.8657 57.5893 37.7966 55.3167 39.4629 53.6373C41.1291 51.9579 43.3943 51.0093 45.76 51C46.9241 50.9838 48.0796 51.2011 49.1582 51.6391C50.2369 52.0771 51.2168 52.7268 52.04 53.55C52.8798 54.3836 53.545 55.3763 53.9966 56.4701C54.4482 57.5638 54.6771 58.7367 54.67 59.92Z" fill="white"/>
</mask>
<g mask="url(#mask0_1_77)">
<path d="M36.88 51H36.85V68.87H36.88V51Z" fill="#0068FF"/>
<path d="M37.22 51H36.88V68.87H37.22V51Z" fill="#0068FF"/>
<path d="M37.55 51H37.21V68.87H37.55V51Z" fill="#0068FF"/>
<path d="M37.89 51H37.55V68.87H37.89V51Z" fill="#0068FF"/>
<path d="M38.23 51H37.89V68.87H38.23V51Z" fill="#0068FF"/>
<path d="M38.56 51H38.22V68.87H38.56V51Z" fill="#0068FF"/>
<path d="M38.9 51H38.56V68.87H38.9V51Z" fill="#0068FF"/>
<path d="M39.23 51H38.89V68.87H39.23V51Z" fill="#0068FF"/>
<path d="M39.5701 51H39.23V68.87H39.5701V51Z" fill="#0068FF"/>
<path d="M39.9 51H39.56V68.87H39.9V51Z" fill="#0068FF"/>
<path d="M40.24 51H39.9V68.87H40.24V51Z" fill="#0068FF"/>
<path d="M40.5701 51H40.23V68.87H40.5701V51Z" fill="#0068FF"/>
<path d="M40.91 51H40.57V68.87H40.91V51Z" fill="#0068FF"/>
<path d="M41.25 51H40.91V68.87H41.25V51Z" fill="#0068FF"/>
<path d="M41.58 51H41.2401V68.87H41.58V51Z" fill="#0068FF"/>
<path d="M41.92 51H41.58V68.87H41.92V51Z" fill="#0068FF"/>
<path d="M42.25 51H41.91V68.87H42.25V51Z" fill="#0068FF"/>
<path d="M42.59 51H42.25V68.87H42.59V51Z" fill="#0068FF"/>
<path d="M42.92 51H42.58V68.87H42.92V51Z" fill="#0068FF"/>
<path d="M43.26 51H42.92V68.87H43.26V51Z" fill="#0068FF"/>
<path d="M43.6 51H43.26V68.87H43.6V51Z" fill="#0068FF"/>
<path d="M43.93 51H43.59V68.87H43.93V51Z" fill="#0068FF"/>
<path d="M44.27 51H43.93V68.87H44.27V51Z" fill="#0068FF"/>
<path d="M44.6 51H44.26V68.87H44.6V51Z" fill="#0068FF"/>
<path d="M44.94 51H44.6V68.87H44.94V51Z" fill="#0068FF"/>
<path d="M45.27 51H44.93V68.87H45.27V51Z" fill="#0068FF"/>
<path d="M45.61 51H45.27V68.87H45.61V51Z" fill="#0068FF"/>
<path d="M45.94 51H45.6V68.87H45.94V51Z" fill="#0068FF"/>
<path d="M46.28 51H45.94V68.87H46.28V51Z" fill="#0068FF"/>
<path d="M46.62 51H46.28V68.87H46.62V51Z" fill="#0068FF"/>
<path d="M46.95 51H46.61V68.87H46.95V51Z" fill="#0068FF"/>
<path d="M47.29 51H46.95V68.87H47.29V51Z" fill="#0068FF"/>
<path d="M47.62 51H47.28V68.87H47.62V51Z" fill="#0068FF"/>
<path d="M47.96 51H47.62V68.87H47.96V51Z" fill="#0068FF"/>
<path d="M48.29 51H47.95V68.87H48.29V51Z" fill="#0068FF"/>
<path d="M48.6301 51H48.29V68.87H48.6301V51Z" fill="#0068FF"/>
<path d="M48.96 51H48.62V68.87H48.96V51Z" fill="#0068FF"/>
<path d="M49.3 51H48.96V68.87H49.3V51Z" fill="#0068FF"/>
<path d="M49.64 51H49.3V68.87H49.64V51Z" fill="#0068FF"/>
<path d="M49.97 51H49.63V68.87H49.97V51Z" fill="#0068FF"/>
<path d="M50.31 51H49.97V68.87H50.31V51Z" fill="#0068FF"/>
<path d="M50.64 51H50.3V68.87H50.64V51Z" fill="#0068FF"/>
<path d="M50.98 51H50.64V68.87H50.98V51Z" fill="#0068FF"/>
<path d="M51.31 51H50.97V68.87H51.31V51Z" fill="#0068FF"/>
<path d="M51.65 51H51.31V68.87H51.65V51Z" fill="#0068FF"/>
<path d="M51.99 51H51.65V68.87H51.99V51Z" fill="#0068FF"/>
<path d="M52.3201 51H51.98V68.87H52.3201V51Z" fill="#0068FF"/>
<path d="M52.66 51H52.32V68.87H52.66V51Z" fill="#0068FF"/>
<path d="M52.99 51H52.65V68.87H52.99V51Z" fill="#0068FF"/>
<path d="M53.33 51H52.9901V68.87H53.33V51Z" fill="#0068FF"/>
<path d="M53.66 51H53.32V68.87H53.66V51Z" fill="#0068FF"/>
<path d="M54 51H53.66V68.87H54V51Z" fill="#0068FF"/>
<path d="M54.33 51H53.9901V68.87H54.33V51Z" fill="#0068FF"/>
<path d="M54.67 51H54.33V68.87H54.67V51Z" fill="#0068FF"/>
</g>
</svg>
